# xmcd
#
# Track frame offsets:
#	150
#	16715
#	33762
#	52105
#	70685
#	88748
#	105629
#	123738
#	140487
#	156825
#	181137
#	195361
#	214235
#	234069
#	250272
#	265660
#	283811
#	301254
#	317404
#
# Disc length: 4439 seconds
#
# Revision: 0
# Processed by: cddbd v1.5.1PL0 Copyright (c) Steve Scherf et al.
# Submitted via: dBpowerAMP V4.0
#
DISCID=fc115513
DTITLE=Various Artist - Energy Dancepower 1996 Vol. 4
DYEAR=1996
DGENRE=
TTITLE0=Paul Elstak - The Promised Land
TTITLE1=Party Animals - Hava Naquila
TTITLE2=Plug and Play - House Your Body
TTITLE3=Zhi-Vago - Celebrate (The Love)
TTITLE4=2Pac and Dr. Dré - California Love
TTITLE5=Prodigy - Firestarter
TTITLE6=Alcatraz - Giv Me Luv
TTITLE7=Heller and Farley Project - Ultra Flava
TTITLE8=Devoné - Energy
TTITLE9=Queen - You Don't Fool Me
TTITLE10=Fools Garden - Lemon Tree
TTITLE11=Radiohead - Street Spirit
TTITLE12=David Bowie - Hello Spaceboy
TTITLE13=Charly Lownosie and Mental Theo - Your Smile
TTITLE14=Tony Di Bart - Turn Your Lov earound
TTITLE15=Michael Jackson - They Don't Care About Us
TTITLE16=Culture Beat - Crying In The Rain
TTITLE17=His Royal Freshness - They Don't Understand
TTITLE18=Projecto Uno - El Peguo
EXTD=
EXTT0=
EXTT1=
EXTT2=
EXTT3=
EXTT4=
EXTT5=
EXTT6=
EXTT7=
EXTT8=
EXTT9=
EXTT10=
EXTT11=
EXTT12=
EXTT13=
EXTT14=
EXTT15=
EXTT16=
EXTT17=
EXTT18=
PLAYORDER=
